<svg width="132" height="116" viewBox="0 0 132 116" fill="none" xmlns="http://www.w3.org/2000/svg">
<circle cx="39.992" cy="9.79982" r="7.85182" fill="white"/>
<path d="M52.8402 18.0086C37.4935 33.3554 39.6348 50.2485 43.2038 57.2676C40.3486 55.8399 28.9885 32.3849 47.1298 13.7258C59.6216 0.877335 77.3474 2.66178 82.8199 5.87387C78.8939 4.56523 67.4269 3.42191 52.8402 18.0086Z" fill="white"/>
<circle cx="10.8938" cy="55.5308" r="7.85182" transform="rotate(-56.1687 10.8938 55.5308)" fill="white"/>
<path d="M24.8658 49.4283C29.0698 70.7208 44.2948 78.3473 52.1124 79.2905C49.3368 80.8673 23.5285 77.2454 18.1289 51.7873C14.4108 34.2573 25.7619 20.5263 31.4769 17.7688C28.2041 20.3014 20.8701 29.1902 24.8658 49.4283Z" fill="white"/>
<circle cx="34.7691" cy="104.966" r="7.85182" transform="rotate(-114.387 34.7691 104.966)" fill="white"/>
<path d="M36.9402 89.8742C57.2543 97.5149 71.756 88.5894 76.6752 82.4406C76.5538 85.6306 59.8822 105.662 35.3973 96.8436C18.5374 90.7714 12.8436 73.8905 13.5095 67.58C13.9386 71.696 17.6321 82.6119 36.9402 89.8742Z" fill="white"/>
<circle cx="91.1001" cy="106.926" r="7.85182" transform="rotate(-176.98 91.1001 106.926)" fill="white"/>
<path d="M78.7023 98.0513C94.8362 83.5344 93.5878 66.5519 90.3935 59.3546C93.1696 60.9308 103.278 84.9516 84.1791 102.629C71.0277 114.802 53.4206 112.086 48.1249 108.59C51.9764 110.103 63.3673 111.849 78.7023 98.0513Z" fill="white"/>
<circle cx="95.1663" cy="10.5991" r="7.85182" transform="rotate(62.347 95.1663 10.5991)" fill="white"/>
<path d="M93.8584 25.7896C73.142 19.3185 59.1723 29.0556 54.6114 35.4746C54.5509 32.2829 70.0543 11.3345 95.0018 18.7437C112.18 23.8455 118.826 40.3747 118.521 46.7129C117.858 42.628 113.549 31.9402 93.8584 25.7896Z" fill="white"/>
<circle cx="120.911" cy="57.2519" r="7.85182" transform="rotate(121.568 120.911 57.2519)" fill="white"/>
<path d="M107.191 63.9014C102.149 42.7915 86.635 35.7722 78.7862 35.1384C81.4974 33.4532 107.429 36.0532 113.829 61.2782C118.237 78.6478 107.437 92.8163 101.835 95.7973C105.005 93.1375 111.982 83.9659 107.191 63.9014Z" fill="white"/>
</svg>
