<svg width="133" height="116" viewBox="0 0 133 116" fill="none" xmlns="http://www.w3.org/2000/svg">
<circle cx="40.492" cy="9.79982" r="7.85182" fill="#2C2C2C"/>
<path d="M53.34 18.0086C37.9932 33.3554 40.1346 50.2485 43.7036 57.2676C40.8484 55.8399 29.4882 32.3849 47.6295 13.7258C60.1214 0.877335 77.8471 2.66178 83.3196 5.87387C79.3937 4.56523 67.9267 3.42191 53.34 18.0086Z" fill="#2C2C2C"/>
<circle cx="11.3938" cy="55.5308" r="7.85182" transform="rotate(-56.1687 11.3938 55.5308)" fill="#2C2C2C"/>
<path d="M25.3661 49.4283C29.57 70.7208 44.7951 78.3473 52.6127 79.2905C49.837 80.8673 24.0287 77.2454 18.6291 51.7873C14.911 34.2573 26.2621 20.5263 31.9771 17.7688C28.7043 20.3014 21.3703 29.1902 25.3661 49.4283Z" fill="#2C2C2C"/>
<circle cx="35.2693" cy="104.966" r="7.85182" transform="rotate(-114.387 35.2693 104.966)" fill="#2C2C2C"/>
<path d="M37.4405 89.8742C57.7546 97.5149 72.2563 88.5894 77.1754 82.4406C77.054 85.6306 60.3824 105.662 35.8976 96.8436C19.0376 90.7714 13.3438 73.8905 14.0097 67.58C14.4389 71.696 18.1323 82.6119 37.4405 89.8742Z" fill="#2C2C2C"/>
<circle cx="91.5998" cy="106.926" r="7.85182" transform="rotate(-176.98 91.5998 106.926)" fill="#2C2C2C"/>
<path d="M79.202 98.0513C95.336 83.5344 94.0875 66.5519 90.8933 59.3546C93.6693 60.9308 103.778 84.9516 84.6789 102.629C71.5275 114.802 53.9203 112.086 48.6247 108.59C52.4762 110.103 63.8671 111.849 79.202 98.0513Z" fill="#2C2C2C"/>
<circle cx="95.666" cy="10.5991" r="7.85182" transform="rotate(62.347 95.666 10.5991)" fill="#2C2C2C"/>
<path d="M94.3579 25.7896C73.6415 19.3185 59.6718 29.0556 55.1109 35.4746C55.0504 32.2829 70.5538 11.3345 95.5013 18.7437C112.68 23.8455 119.326 40.3747 119.021 46.7129C118.358 42.628 114.048 31.9402 94.3579 25.7896Z" fill="#2C2C2C"/>
<circle cx="121.411" cy="57.2519" r="7.85182" transform="rotate(121.568 121.411 57.2519)" fill="#2C2C2C"/>
<path d="M107.691 63.9014C102.649 42.7915 87.135 35.7722 79.2862 35.1384C81.9974 33.4532 107.929 36.0532 114.329 61.2782C118.737 78.6478 107.937 92.8163 102.335 95.7973C105.505 93.1375 112.482 83.9659 107.691 63.9014Z" fill="#2C2C2C"/>
</svg>
